<svg width="112" height="28" viewBox="0 0 390 91" fill="none" xmlns="http://www.w3.org/2000/svg">
    <g clip-path="url(#clip0_34_84)">
        <path d="M364.831 22.75H298.325C286.082 22.75 276.157 32.6269 276.157 44.8106C276.157 56.9943 286.082 66.8712 298.325 66.8712H364.831C377.075 66.8712 387 56.9943 387 44.8106C387 32.6269 377.075 22.75 364.831 22.75Z" fill="#ECECFE"/>
        <path d="M295.923 55.8409V34.6075H302.202C306.652 34.6075 309.365 36.7915 309.365 40.3709C309.365 42.0999 308.573 43.5862 307.079 44.5569C309.335 45.5579 310.585 47.3779 310.585 49.5922C310.585 53.4749 307.567 55.8409 302.659 55.8409H295.923ZM302.293 38.1869H300.251V42.9795H302.293C303.94 42.9795 304.915 42.0999 304.915 40.5529C304.915 39.0665 303.94 38.1869 302.293 38.1869ZM302.903 46.5589H300.251V52.2615H302.903C304.915 52.2615 306.134 51.1999 306.134 49.4102C306.134 47.5902 304.915 46.5589 302.903 46.5589ZM314.722 55.8409V34.6075H327.158V38.1869H319.05V43.2222H325.939V46.8015H319.05V52.2615H327.158V55.8409H314.722ZM330.135 38.5205V34.6075H347.631V38.5205H341.047V55.8409H336.719V38.5205H330.135ZM346.392 55.8409L354.47 34.6075H360.14L368.218 55.8409H363.615L361.573 50.3202H353.038L350.995 55.8409H346.392ZM354.379 46.6499H360.231L357.305 38.6722L354.379 46.6499Z" fill="#5858D3"/>
        <rect x="1" y="15" width="90" height="57" rx="3" fill="#F2AF05"/>
        <g filter="url(#filter0_d_34_84)">
            <rect x="5" y="19" width="82" height="23" rx="3" fill="white"/>
        </g>
        <g clip-path="url(#clip1_34_84)">
            <g filter="url(#filter1_d_34_84)">
                <path d="M1 28C1 26.3431 2.34315 25 4 25H23.3014C24.3552 25 25.3317 25.5529 25.8739 26.4565L27.1261 28.5435C27.6683 29.4471 28.6448 30 29.6986 30H88C89.6569 30 91 31.3431 91 33V72C91 73.6569 89.6569 75 88 75H4C2.34315 75 1 73.6569 1 72V28Z" fill="#F2AF05"/>
            </g>
        </g>
        <line x1="14.5" y1="53.5" x2="27.5" y2="53.5" stroke="white" stroke-width="3" stroke-linecap="round"/>
        <line x1="14.5" y1="61.5" x2="47.5" y2="61.5" stroke="white" stroke-width="3" stroke-linecap="round"/>
        <path d="M125.619 67H110.666V24.8182H125.743C129.986 24.8182 133.638 25.6626 136.7 27.3516C139.762 29.0268 142.117 31.4366 143.765 34.581C145.426 37.7254 146.257 41.4877 146.257 45.8679C146.257 50.2618 145.426 54.0379 143.765 57.196C142.117 60.3542 139.749 62.7777 136.659 64.4666C133.583 66.1555 129.903 67 125.619 67ZM119.585 59.3587H125.249C127.885 59.3587 130.103 58.8918 131.901 57.9581C133.714 57.0107 135.073 55.5483 135.979 53.571C136.899 51.58 137.359 49.0123 137.359 45.8679C137.359 42.7509 136.899 40.2038 135.979 38.2266C135.073 36.2493 133.721 34.7938 131.922 33.8601C130.123 32.9264 127.906 32.4595 125.269 32.4595H119.585V59.3587ZM152.699 67V35.3636H161.205V40.8835H161.535C162.111 38.92 163.079 37.437 164.439 36.4347C165.798 35.4186 167.363 34.9105 169.135 34.9105C169.574 34.9105 170.048 34.938 170.556 34.9929C171.064 35.0478 171.51 35.1233 171.895 35.2195V43.005C171.483 42.8814 170.913 42.7715 170.185 42.6754C169.457 42.5793 168.791 42.5312 168.187 42.5312C166.897 42.5312 165.743 42.8127 164.727 43.3757C163.725 43.925 162.928 44.6939 162.338 45.6825C161.761 46.6712 161.473 47.8108 161.473 49.1016V67H152.699ZM176.431 67V35.3636H185.205V67H176.431ZM180.839 31.2855C179.534 31.2855 178.415 30.853 177.482 29.9879C176.562 29.1091 176.102 28.0587 176.102 26.8366C176.102 25.6283 176.562 24.5916 177.482 23.7266C178.415 22.8478 179.534 22.4084 180.839 22.4084C182.143 22.4084 183.255 22.8478 184.175 23.7266C185.109 24.5916 185.576 25.6283 185.576 26.8366C185.576 28.0587 185.109 29.1091 184.175 29.9879C183.255 30.853 182.143 31.2855 180.839 31.2855ZM221.728 35.3636L210.668 67H200.781L189.721 35.3636H198.99L205.56 57.9993H205.889L212.439 35.3636H221.728ZM239.616 67.6179C236.362 67.6179 233.561 66.9588 231.213 65.6406C228.879 64.3087 227.08 62.4276 225.817 59.9972C224.553 57.553 223.922 54.6626 223.922 51.326C223.922 48.0717 224.553 45.2157 225.817 42.7578C227.08 40.3 228.858 38.3845 231.151 37.0114C233.458 35.6383 236.163 34.9517 239.266 34.9517C241.353 34.9517 243.296 35.2881 245.095 35.9609C246.907 36.62 248.487 37.6155 249.832 38.9474C251.192 40.2794 252.249 41.9545 253.004 43.973C253.759 45.9777 254.137 48.3258 254.137 51.017V53.4268H227.423V47.9893H245.878C245.878 46.7261 245.603 45.607 245.054 44.6321C244.505 43.6572 243.742 42.8951 242.768 42.3459C241.806 41.7829 240.687 41.5014 239.41 41.5014C238.078 41.5014 236.898 41.8104 235.868 42.4283C234.852 43.0324 234.055 43.8494 233.479 44.8793C232.902 45.8954 232.607 47.0282 232.593 48.2777V53.4474C232.593 55.0128 232.881 56.3653 233.458 57.505C234.048 58.6446 234.879 59.5234 235.95 60.1413C237.021 60.7592 238.291 61.0682 239.76 61.0682C240.735 61.0682 241.628 60.9309 242.438 60.6562C243.248 60.3816 243.942 59.9697 244.518 59.4205C245.095 58.8712 245.534 58.1984 245.836 57.402L253.952 57.9375C253.54 59.8873 252.695 61.59 251.418 63.0455C250.155 64.4872 248.521 65.6132 246.516 66.4233C244.525 67.2197 242.225 67.6179 239.616 67.6179Z" fill="#0443F2"/>
    </g>
    <defs>
        <filter id="filter0_d_34_84" x="0" y="14" width="92" height="33" filterUnits="userSpaceOnUse" color-interpolation-filters="sRGB">
            <feFlood flood-opacity="0" result="BackgroundImageFix"/>
            <feColorMatrix in="SourceAlpha" type="matrix" values="0 0 0 0 0 0 0 0 0 0 0 0 0 0 0 0 0 0 127 0" result="hardAlpha"/>
            <feOffset/>
            <feGaussianBlur stdDeviation="2.5"/>
            <feComposite in2="hardAlpha" operator="out"/>
            <feColorMatrix type="matrix" values="0 0 0 0 0 0 0 0 0 0 0 0 0 0 0 0 0 0 0.5 0"/>
            <feBlend mode="normal" in2="BackgroundImageFix" result="effect1_dropShadow_34_84"/>
            <feBlend mode="normal" in="SourceGraphic" in2="effect1_dropShadow_34_84" result="shape"/>
        </filter>
        <filter id="filter1_d_34_84" x="-4" y="20" width="100" height="60" filterUnits="userSpaceOnUse" color-interpolation-filters="sRGB">
            <feFlood flood-opacity="0" result="BackgroundImageFix"/>
            <feColorMatrix in="SourceAlpha" type="matrix" values="0 0 0 0 0 0 0 0 0 0 0 0 0 0 0 0 0 0 127 0" result="hardAlpha"/>
            <feOffset/>
            <feGaussianBlur stdDeviation="2.5"/>
            <feComposite in2="hardAlpha" operator="out"/>
            <feColorMatrix type="matrix" values="0 0 0 0 0 0 0 0 0 0 0 0 0 0 0 0 0 0 0.8 0"/>
            <feBlend mode="normal" in2="BackgroundImageFix" result="effect1_dropShadow_34_84"/>
            <feBlend mode="normal" in="SourceGraphic" in2="effect1_dropShadow_34_84" result="shape"/>
        </filter>
        <clipPath id="clip0_34_84">
            <rect width="460" height="91" fill="white"/>
        </clipPath>
        <clipPath id="clip1_34_84">
            <rect x="1" y="15" width="90" height="60" rx="3" fill="white"/>
        </clipPath>
    </defs>
</svg>
