<svg width="92" height="32" viewBox="0 0 92 32" fill="none" xmlns="http://www.w3.org/2000/svg">
<path d="M43.7415 24H38.3274V8.72727H43.7862C45.3224 8.72727 46.6449 9.03303 47.7536 9.64453C48.8622 10.2511 49.7148 11.1236 50.3114 12.2621C50.913 13.4006 51.2138 14.7628 51.2138 16.3487C51.2138 17.9396 50.913 19.3068 50.3114 20.4503C49.7148 21.5937 48.8572 22.4712 47.7386 23.0827C46.625 23.6942 45.2926 24 43.7415 24ZM41.5565 21.2333H43.6072C44.5618 21.2333 45.3647 21.0643 46.016 20.7262C46.6722 20.3832 47.1644 19.8537 47.4925 19.1378C47.8256 18.4169 47.9922 17.4872 47.9922 16.3487C47.9922 15.2202 47.8256 14.2979 47.4925 13.582C47.1644 12.8661 46.6747 12.3391 46.0234 12.0011C45.3722 11.663 44.5692 11.494 43.6147 11.494H41.5565V21.2333ZM53.5461 24V12.5455H56.626V14.544H56.7453C56.9541 13.8331 57.3046 13.2962 57.7968 12.9332C58.289 12.5653 58.8557 12.3814 59.4971 12.3814C59.6562 12.3814 59.8277 12.3913 60.0116 12.4112C60.1956 12.4311 60.3572 12.4585 60.4964 12.4933V15.3121C60.3472 15.2674 60.1409 15.2276 59.8774 15.1928C59.6139 15.158 59.3728 15.1406 59.154 15.1406C58.6867 15.1406 58.2691 15.2425 57.9012 15.4464C57.5383 15.6452 57.2499 15.9237 57.0361 16.2816C56.8273 16.6396 56.7229 17.0522 56.7229 17.5195V24H53.5461ZM62.1388 24V12.5455H65.3157V24H62.1388ZM63.7347 11.0689C63.2624 11.0689 62.8572 10.9123 62.5192 10.5991C62.1861 10.2809 62.0195 9.90057 62.0195 9.4581C62.0195 9.0206 62.1861 8.64524 62.5192 8.33203C62.8572 8.01385 63.2624 7.85476 63.7347 7.85476C64.207 7.85476 64.6097 8.01385 64.9428 8.33203C65.2809 8.64524 65.4499 9.0206 65.4499 9.4581C65.4499 9.90057 65.2809 10.2809 64.9428 10.5991C64.6097 10.9123 64.207 11.0689 63.7347 11.0689ZM78.5395 12.5455L74.5349 24H70.9553L66.9507 12.5455H70.3066L72.6855 20.7411H72.8048L75.1762 12.5455H78.5395ZM85.0162 24.2237C83.838 24.2237 82.8238 23.9851 81.9736 23.5078C81.1285 23.0256 80.4772 22.3445 80.0198 21.4645C79.5624 20.5795 79.3337 19.533 79.3337 18.3249C79.3337 17.1467 79.5624 16.1126 80.0198 15.2227C80.4772 14.3327 81.121 13.6392 81.9513 13.142C82.7865 12.6449 83.7659 12.3963 84.8895 12.3963C85.6452 12.3963 86.3486 12.5181 86.9999 12.7617C87.6562 13.0004 88.2279 13.3608 88.7151 13.843C89.2073 14.3253 89.5901 14.9318 89.8635 15.6626C90.137 16.3885 90.2737 17.2386 90.2737 18.2131V19.0856H80.6015V17.1168H87.2833C87.2833 16.6594 87.1839 16.2543 86.985 15.9013C86.7861 15.5483 86.5102 15.2724 86.1572 15.0735C85.8092 14.8697 85.404 14.7678 84.9417 14.7678C84.4594 14.7678 84.0319 14.8796 83.659 15.1033C83.2911 15.3221 83.0028 15.6179 82.7939 15.9908C82.5851 16.3587 82.4782 16.7688 82.4733 17.2212V19.093C82.4733 19.6598 82.5777 20.1495 82.7865 20.5621C83.0003 20.9748 83.301 21.293 83.6888 21.5167C84.0766 21.7404 84.5365 21.8523 85.0684 21.8523C85.4214 21.8523 85.7446 21.8026 86.0379 21.7031C86.3312 21.6037 86.5823 21.4545 86.7911 21.2557C86.9999 21.0568 87.159 20.8132 87.2684 20.5249L90.2066 20.7188C90.0574 21.4247 89.7517 22.0412 89.2893 22.5682C88.8319 23.0902 88.2403 23.4979 87.5145 23.7912C86.7936 24.0795 85.9608 24.2237 85.0162 24.2237Z" fill="#0443F2"/>
<path fill-rule="evenodd" clip-rule="evenodd" d="M11.4695 5C12.53 5 13.4995 5.58854 13.9738 6.52019L14.6 7.75H27.2C28.7464 7.75 30 8.98122 30 10.5V24.25C30 25.7688 28.7464 27 27.2 27H4.8C3.2536 27 2 25.7688 2 24.25V7.75C2 6.23122 3.2536 5 4.8 5H11.4695ZM6.9 21.5C6.5134 21.5 6.2 21.8078 6.2 22.1875C6.2 22.5672 6.5134 22.875 6.9 22.875H25.1C25.4866 22.875 25.8 22.5672 25.8 22.1875C25.8 21.8078 25.4866 21.5 25.1 21.5H6.9Z" fill="url(#paint0_linear_89_53)"/>
<defs>
<linearGradient id="paint0_linear_89_53" x1="2" y1="5" x2="23.4553" y2="31.8801" gradientUnits="userSpaceOnUse">
<stop stop-color="#EFA905"/>
<stop offset="1" stop-color="#DC7D06"/>
</linearGradient>
</defs>
</svg>
