<svg width="64" height="64" viewBox="0 0 108 108" fill="none" xmlns="http://www.w3.org/2000/svg">
    <rect x="9" y="24" width="90" height="57" rx="3" fill="#F2AF05"/>
    <g filter="url(#filter0_d_27_87)">
        <rect x="13" y="28" width="82" height="23" rx="3" fill="white"/>
    </g>
    <g clip-path="url(#clip0_27_87)">
        <g filter="url(#filter1_d_27_87)">
            <path d="M9 37C9 35.3431 10.3431 34 12 34H31.3014C32.3552 34 33.3317 34.5529 33.8739 35.4565L35.1261 37.5435C35.6683 38.4471 36.6448 39 37.6986 39H96C97.6569 39 99 40.3431 99 42V81C99 82.6569 97.6569 84 96 84H12C10.3431 84 9 82.6569 9 81V37Z" fill="#F2AF05"/>
        </g>
    </g>
    <line x1="22.5" y1="62.5" x2="35.5" y2="62.5" stroke="white" stroke-width="3" stroke-linecap="round"/>
    <line x1="22.5" y1="70.5" x2="55.5" y2="70.5" stroke="white" stroke-width="3" stroke-linecap="round"/>
    <defs>
        <filter id="filter0_d_27_87" x="8" y="23" width="92" height="33" filterUnits="userSpaceOnUse" color-interpolation-filters="sRGB">
            <feFlood flood-opacity="0" result="BackgroundImageFix"/>
            <feColorMatrix in="SourceAlpha" type="matrix" values="0 0 0 0 0 0 0 0 0 0 0 0 0 0 0 0 0 0 127 0" result="hardAlpha"/>
            <feOffset/>
            <feGaussianBlur stdDeviation="2.5"/>
            <feComposite in2="hardAlpha" operator="out"/>
            <feColorMatrix type="matrix" values="0 0 0 0 0 0 0 0 0 0 0 0 0 0 0 0 0 0 0.5 0"/>
            <feBlend mode="normal" in2="BackgroundImageFix" result="effect1_dropShadow_27_87"/>
            <feBlend mode="normal" in="SourceGraphic" in2="effect1_dropShadow_27_87" result="shape"/>
        </filter>
        <filter id="filter1_d_27_87" x="4" y="29" width="100" height="60" filterUnits="userSpaceOnUse" color-interpolation-filters="sRGB">
            <feFlood flood-opacity="0" result="BackgroundImageFix"/>
            <feColorMatrix in="SourceAlpha" type="matrix" values="0 0 0 0 0 0 0 0 0 0 0 0 0 0 0 0 0 0 127 0" result="hardAlpha"/>
            <feOffset/>
            <feGaussianBlur stdDeviation="2.5"/>
            <feComposite in2="hardAlpha" operator="out"/>
            <feColorMatrix type="matrix" values="0 0 0 0 0 0 0 0 0 0 0 0 0 0 0 0 0 0 0.8 0"/>
            <feBlend mode="normal" in2="BackgroundImageFix" result="effect1_dropShadow_27_87"/>
            <feBlend mode="normal" in="SourceGraphic" in2="effect1_dropShadow_27_87" result="shape"/>
        </filter>
        <clipPath id="clip0_27_87">
            <rect x="9" y="24" width="90" height="60" rx="3" fill="white"/>
        </clipPath>
    </defs>
</svg>
